<?xml version="1.0" encoding="UTF-8"?>
<svg id="Capa_1" data-name="Capa 1" xmlns="http://www.w3.org/2000/svg" viewBox="0 0 501.94 500.75">
  <defs>
    <style>
      .cls-1, .cls-2 {
        fill: #fff;
      }

      .cls-3 {
        fill: none;
        stroke: #231f1e;
      }

      .cls-3, .cls-2 {
        stroke-miterlimit: 10;
      }

      .cls-2 {
        stroke: #1d1d1b;
      }
    </style>
  </defs>
  <path class="cls-2" d="m94.53,256.03c0-1.31-.87-2.18-2.18-2.18h-12.62c-.87,0-1.74.44-1.74,1.74l-.44,4.79c0,1.74-1.31,2.61-3.05,2.18L1.37,254.73c-.44,0-.87-.44-.87-.87v-.44q0-.44.44-.44c32.21-3.92,64.86-7.84,97.08-12.19,3.92-.44,6.97,2.61,8.71,9.14.44,1.74,1.74,2.61,3.48,2.61l42.66-1.31c1.31,0,2.18-.87,2.18-2.18v-10.45c0-2.61,1.31-3.92,3.92-3.92l12.19.44c2.61,0,3.92,1.31,3.48,3.92-4.79,23.94,3.48,49.63,20.9,65.3,1.31,1.31,3.48,1.31,4.79-.44l6.09-6.97c1.74-1.74,1.74-3.92,0-5.66-10.88-13.06-15.24-27.86-13.06-44.84.44-2.18-.87-3.48-3.05-3.48l-4.35-.44c-1.74,0-2.61-.87-2.18-2.61l.87-5.22c.44-2.18-.87-3.92-2.61-4.79l-20.9-6.53c-1.74-.87-3.05-2.61-2.18-4.79,13.49-33.52,38.31-53.98,73.57-62.25,1.74-.44,3.05-1.74,3.05-3.48l3.92-53.98c0-1.74.87-2.18,2.61-2.18l6.53-.44c1.31,0,2.61-1.31,2.61-2.61l-.44-12.19c0-1.31-1.31-2.61-2.61-2.18-4.35.87-6.09-.44-6.09-3.48,2.61-24.81,5.22-47.45,7.4-68.78.87-8.71,1.74-8.71,3.05,0l10.45,96.64c0,1.74-.87,3.05-2.61,3.48l-6.09.44c-1.31,0-2.18.87-2.18,2.18l.44,43.97c0,1.74.87,2.61,2.61,2.61h11.32c1.74,0,3.48,1.74,3.05,3.48l-.87,12.62c-.44,2.61-1.74,3.48-3.92,3.48-23.94-3.48-44.84,2.61-62.69,17.85-3.48,3.05-3.48,6.09-.44,9.14l4.35,4.35c3.05,3.05,6.09,3.05,9.58.44,12.19-10.01,26.55-13.93,42.23-11.75,1.31,0,3.05-.87,3.05-2.61l.44-5.66c0-1.31.87-2.18,2.18-2.18l6.97.87c1.74,0,3.05-.44,3.48-2.18l6.97-21.33c.44-1.74,2.61-3.05,4.79-2.18,28.73,12.19,48.32,32.21,57.9,61.38,1.31,4.35,3.05,8.71,5.22,13.06.44,1.31,1.74,2.18,3.05,2.18l53.54,3.48c1.74,0,2.61,1.31,2.61,3.05v5.22c0,2.18,1.31,3.48,3.48,3.48l10.88-.44c2.18,0,3.48-1.31,3.48-3.48v-2.61c0-1.74.87-2.61,2.61-2.61,22.64,1.74,44.84,4.35,67.47,7.84,7.4.87,7.4,2.18,0,2.61l-94.9,10.01c-1.31,0-2.61-.87-3.05-2.18l-1.31-6.97c-.44-1.31-1.31-2.18-2.61-2.18l-42.66.87c-1.74,0-2.61.87-2.61,2.61v10.01c0,3.05-1.74,4.35-4.35,3.92l-11.75-.87c-2.61,0-3.92-1.74-3.48-3.92,3.48-24.38-3.05-47.89-20.46-64.43-1.31-1.31-3.92-1.31-5.22,0l-8.27,8.27c-1.74,1.74-1.74,3.48,0,5.66,11.32,12.62,16.11,26.99,14.8,43.97,0,1.74,1.31,3.05,2.61,3.05h4.35c1.74,0,2.61,1.31,2.61,3.05l-1.31,5.66c-.44,1.74.44,3.05,2.18,3.48l21.33,6.97c2.61.87,3.48,2.61,2.61,5.22-13.49,33.08-37.87,53.54-73.13,61.82-1.74.44-3.05,1.74-3.05,3.48-1.74,17.85-2.61,35.7-3.48,52.67,0,3.92-3.05,5.22-8.27,3.92-1.74-.44-3.48.87-3.48,2.61l.44,11.75c0,1.74.87,2.18,2.61,2.18,4.79,0,6.53,2.61,6.09,7.4-3.05,22.64-5.66,45.27-7.84,68.35h-1.31q-.44,0-.44-.44c-3.92-32.21-7.4-64.86-10.88-97.08,0-2.18,0-3.92.87-4.35.87-.87,2.61-1.31,5.22-1.31,3.48,0,5.22-1.74,4.79-5.22l-1.31-41.36c0-1.31-.87-2.18-2.18-2.18l-10.88-.44c-2.61,0-3.48-1.31-3.48-3.92l.44-11.75c0-2.61,1.31-3.92,4.35-3.48,23.94,2.61,48.32-2.61,64.86-20.46,1.31-1.74,1.31-3.92-.44-5.66l-6.53-6.09c-1.74-1.74-3.92-1.74-5.66,0-12.62,11.32-27.86,16.54-45.27,14.37-1.31,0-2.18.87-2.61,1.74l-.44,3.92c-.44,1.31-1.74,2.61-3.05,2.18l-5.66-.87c-2.18-.44-3.48.44-3.92,2.61l-6.53,20.9c-.44,1.74-2.61,3.05-4.79,2.18-33.52-13.93-54.42-38.74-62.25-74.44-.44-1.31-.87-1.74-2.18-1.74l-54.85-3.92c-1.74,0-2.61-1.31-2.61-3.05l-3.05-4.35Z"/>
  <path class="cls-1" d="m176.8,119.78c13.06-16.98-.44-32.21-19.15-29.6-2.18.44-3.05-.44-3.05-2.61v-16.11c0-2.18.87-3.05,3.05-3.05h61.82c1.31,0,2.61.87,3.05,2.61l10.45,64.86c.44,2.18-1.31,4.35-3.48,4.79-48.76,9.58-79.66,41.36-91.85,91.42-.44,1.31-1.74,2.18-3.05,1.74l-58.77-8.71c-.87,0-1.74-1.31-1.31-2.18,19.59-44.84,51.37-77.05,94.9-96.64,2.61-1.31,4.79-3.05,7.4-6.53Zm-4.35-38.31c33.08,5.66,21.77,47.01-1.74,57.46-36.57,16.11-63.56,41.79-80.53,77.05-.44.44,0,1.31.87,1.31l36.57,5.22c.87,0,1.74-.44,1.74-1.31,13.06-47.01,43.1-77.05,90.11-89.68,1.74-.44,2.18-1.31,2.18-3.05l-7.4-46.58c0-1.31-1.31-2.61-3.05-2.61l-38.31-.87c-.44,0-.87,0-.87.87,0,.44-.44.87-.44,1.31,0,.43.44.87.87.87Z"/>
  <path class="cls-1" d="m425.37,225.13l-56.16,8.27c-2.18.44-4.79-.87-5.22-3.48-13.93-47.89-42.23-80.97-92.29-89.24-2.18-.44-3.48-1.74-3.05-3.92l10.88-67.04c0-.87.87-1.31,1.74-1.31h61.82c2.61,0,3.92,1.31,3.92,3.92v14.37c0,3.05-1.31,3.92-4.35,3.48-27.43-4.79-29.17,27.43-7.4,37.44,41.79,19.59,72.26,50.93,90.98,94.03.44.87.44,2.18-.44,3.05,0,0-.44.44-.44.44Zm-15.24-7.84c.87,0,1.31-.87.87-1.74-13.93-29.17-35.26-51.8-63.12-67.47-5.66-3.05-11.32-6.09-16.54-9.14-24.81-13.93-36.13-47.89-2.18-57.9.44,0,.87-.44.44-.87,0-.44-.44-.87-.44-.87-.44-.44-.87-.44-1.74-.44-12.62,0-25.25.44-37.87.87-1.31,0-2.18.87-2.61,2.18l-6.97,47.01c-.44,1.31.87,3.05,2.18,3.48,46.58,12.62,76.62,42.23,89.68,88.81.44,1.31,1.74,2.18,2.61,1.74l35.7-5.66Z"/>
  <path class="cls-3" d="m171.15,138.93c23.51-10.45,34.83-51.37,1.74-57.46-.87,0-.87-.44-.87-1.31,0-.44.44-.87.44-1.31s.44-.87.87-.87l38.31.87c1.31,0,2.61.87,3.05,2.61l7.4,46.58c.44,1.74-.44,2.61-2.18,3.05-47.01,12.62-77.05,42.66-90.11,89.68-.44.87-.87,1.31-1.74,1.31l-36.57-5.22c-.44,0-.87-.87-.87-1.31,16.98-35.26,43.97-60.94,80.53-76.62Z"/>
  <path class="cls-3" d="m410.14,217.29l-35.26,4.79c-1.31,0-2.61-.44-2.61-1.74-13.06-46.58-43.1-75.75-89.68-88.81-1.31-.44-2.61-1.74-2.18-3.48l6.97-47.01c.44-1.31.87-2.18,2.61-2.18,12.62-.44,25.25-.87,37.87-.87.87,0,1.31,0,1.74.44q.44.44.44.87c0,.44,0,.87-.44.87-33.95,10.01-22.64,44.4,2.18,57.9,5.66,3.05,11.32,6.09,16.54,9.14,27.86,15.67,48.76,38.31,63.12,67.47,0,1.74-.44,2.61-1.31,2.61Z"/>
  <path class="cls-2" d="m300.87,470.65c.44,1.31,1.74,2.18,3.05,1.74,74.44-30.47,120.58-84.89,124.5-168.03,0-2.18-1.31-4.35-3.92-4.79l-46.14-9.14c-1.31-.44-3.05.87-3.05,2.18-2.18,11.32-6.97,21.33-13.93,30.04-1.31,1.31-.87,3.48.87,4.79l26.55,18.28c1.74.87,3.48.44,4.35-1.31,1.31-4.35,2.61-8.71,3.48-13.93.87-3.48-1.31-5.66-5.66-6.09-3.48-.44-4.79-2.18-3.92-5.22l2.18-7.84c.87-3.48,3.05-4.79,6.09-3.92l10.88,2.61c1.31.44,2.18,1.31,2.18,2.61.44,20.9-4.79,40.05-15.24,57.9-.87,1.31-3.05,1.74-4.35.87l-49.19-41.79q-.44-.44,0-.87c11.32-16.11,20.02-33.08,26.12-51.8.44-1.74,1.31-2.18,3.05-1.74l72.7,11.75c1.74.44,2.61,1.31,2.61,3.05-.87,104.48-50.06,171.95-148.01,202.86-4.35,1.31-6.97,0-7.84-4.79l-19.15-115.8c-.44-1.74.87-3.48,2.61-3.92,18.28-3.92,35.26-11.75,50.93-22.64,1.31-.87,2.61-.87,3.48.44l46.14,56.59c.87.87.87,2.18,0,3.05-13.93,16.98-30.91,30.04-50.93,39.61-2.18.87-4.35,0-5.22-2.18l-14.8-43.53c-.87-2.18,0-3.92,2.18-4.79l9.58-3.48c1.74-.87,3.92,0,4.79,1.74l13.93,28.73c1.31,2.61,3.48,3.48,5.66,1.31l8.27-6.09c2.61-2.18,3.05-4.35,1.31-6.97l-24.81-41.79c-.44-.87-1.74-1.31-2.61-.87l-33.52,13.93c-.87.44-1.31,1.31-1.31,2.18l16.11,87.06Z"/>
  <path class="cls-2" d="m122.39,290.42l-47.45,9.14c-.87,0-1.74.87-1.74,2.18.87,82.28,49.19,141.04,124.07,170.21,1.74.87,3.05,0,3.48-1.74l15.67-87.06c.44-1.31-.44-2.61-1.74-3.05l-32.21-13.49c-1.31-.44-3.05,0-3.92,1.31l-23.94,40.48c-2.18,3.48-1.31,6.09,1.74,8.27l7.4,5.22c3.05,2.18,5.22,1.74,6.97-1.74l14.37-28.73c.87-1.74,1.74-2.18,3.48-1.31l11.32,4.79c1.31.44,1.74,1.74,1.31,3.05l-16.11,47.01c-.44.87-.87,1.31-2.18.87-20.46-9.58-37.87-22.64-52.24-39.61-1.31-1.31-1.31-3.48,0-5.22l45.71-56.16c.87-.87,1.74-1.31,3.05-.44,15.67,11.32,33.08,19.15,51.8,23.07,1.31.44,2.61,1.74,2.18,3.05l-20.02,119.71c-.44,2.18-1.74,3.05-3.48,2.18-95.77-26.55-155.41-103.17-150.19-204.17,0-1.31.87-2.18,2.18-2.61l70.52-11.32c1.74-.44,3.48.87,4.35,2.61,5.66,17.85,14.37,34.39,24.81,49.19.87,1.31.87,2.61-.44,3.92l-47.89,40.48c-1.31.87-3.05.87-3.92-.44-10.45-17.41-15.67-36.57-15.24-57.46,0-1.74.87-3.05,3.05-3.48l12.19-2.61c1.31-.44,2.61.44,3.05,1.74l3.05,10.88c.44,1.74,0,3.05-1.74,3.92l-5.22,2.18c-1.74.87-2.61,2.61-2.18,4.35l3.48,14.8c.44,1.74,2.18,2.61,3.48,1.31l27.43-19.15c1.31-.87,1.31-2.18.44-3.48-6.97-9.14-11.75-19.59-14.37-30.47-1.31-1.74-2.61-2.61-4.35-2.18Z"/>
</svg>